<svg width="21" height="21" viewBox="0 0 21 21" fill="none" xmlns="http://www.w3.org/2000/svg">
<path d="M20.7958 8.44357H19.95V8.4H10.5V12.6H16.4341C15.5683 15.0449 13.2421 16.8 10.5 16.8C7.02082 16.8 4.2 13.9792 4.2 10.5C4.2 7.02082 7.02082 4.2 10.5 4.2C12.106 4.2 13.567 4.80585 14.6795 5.79547L17.6494 2.82555C15.7741 1.07782 13.2657 0 10.5 0C4.70137 0 0 4.70137 0 10.5C0 16.2986 4.70137 21 10.5 21C16.2986 21 21 16.2986 21 10.5C21 9.79597 20.9275 9.10875 20.7958 8.44357Z" fill="#FFC107"/>
<path d="M1.21094 5.61277L4.66071 8.14275C5.59416 5.8317 7.85481 4.2 10.5003 4.2C12.1063 4.2 13.5673 4.80585 14.6798 5.79547L17.6497 2.82555C15.7744 1.07782 13.266 0 10.5003 0C6.46724 0 2.96969 2.27692 1.21094 5.61277Z" fill="#FF3D00"/>
<path d="M10.5 21.0001C13.2121 21.0001 15.6765 19.9621 17.5397 18.2743L14.2899 15.5243C13.2357 16.3228 11.9253 16.8001 10.5 16.8001C7.76892 16.8001 5.44999 15.0586 4.57639 12.6284L1.15234 15.2665C2.89009 18.667 6.41914 21.0001 10.5 21.0001Z" fill="#4CAF50"/>
<path d="M20.7958 8.44348H19.95V8.3999H10.5V12.5999H16.4341C16.0183 13.7743 15.2628 14.7871 14.2884 15.5247C14.2889 15.5242 14.2894 15.5242 14.29 15.5236L17.5397 18.2736C17.3098 18.4825 21 15.7499 21 10.4999C21 9.79588 20.9275 9.10865 20.7958 8.44348Z" fill="#1976D2"/>
</svg>
